<svg version="1.1" id="Layer_1" xmlns="http://www.w3.org/2000/svg" xmlns:xlink="http://www.w3.org/1999/xlink" x="0px" y="0px"
	 width="100%" viewBox="0 0 658 436" enable-background="new 0 0 658 436" xml:space="preserve">
<path fill="#000000" opacity="1.000000" stroke="none" 
	d="
M1.000000,431.000000 
	C1.000000,290.975098 1.000000,150.950180 1.357980,10.232648 
	C9.267795,9.023727 9.267795,9.023727 11.000000,1.000000 
	C224.024902,1.000000 437.049805,1.000000 650.797852,1.337056 
	C652.112793,9.256777 652.520386,9.710528 659.000000,10.000000 
	C659.000000,149.358231 659.000000,288.716461 658.579773,428.572876 
	C654.267090,428.512207 652.689575,430.188660 653.207581,434.063660 
	C653.334900,435.016174 653.079468,436.019836 653.000000,437.000000 
	C438.975098,437.000000 224.950180,437.000000 10.385010,436.601257 
	C10.009045,429.176727 4.761642,431.351318 1.000000,431.000000 
M341.464142,264.796631 
	C341.079346,264.794281 340.694550,264.791931 339.890625,264.248047 
	C331.747040,261.530975 324.329010,257.703491 318.230469,251.415665 
	C305.220917,238.002289 299.182739,222.772751 305.130554,204.159424 
	C307.794342,195.823196 312.654388,188.677841 319.227142,183.276001 
	C330.897095,173.685028 343.649445,165.965500 359.776276,171.343124 
	C364.768585,173.007828 369.325836,175.949326 374.140717,178.180130 
	C383.314178,182.430328 390.806519,180.912521 395.541504,171.942795 
	C398.364563,166.594940 396.061127,159.504929 391.198883,156.071152 
	C381.469238,149.199890 370.426788,146.538223 358.895599,145.298248 
	C326.043152,141.765625 296.943390,153.966217 281.947418,185.662216 
	C276.084869,198.053589 276.175385,211.108887 276.432587,224.289734 
	C276.837219,245.027466 285.139496,262.399536 300.999542,275.177368 
	C322.576233,292.560852 347.840759,293.750519 373.559265,287.266693 
	C384.285797,284.562469 393.189575,277.721680 400.442352,269.029388 
	C410.402374,257.092560 414.167603,243.186951 414.295166,227.091934 
	C414.215454,224.726517 414.135742,222.361115 414.335022,219.272339 
	C414.256409,218.508606 414.177795,217.744888 414.371735,216.358170 
	C414.296082,215.916138 414.220428,215.474121 414.389709,214.544357 
	C412.593475,214.030884 410.797272,213.517410 408.074036,212.853683 
	C390.715668,212.904129 373.357300,212.954575 355.455505,212.756485 
	C353.169861,212.628220 350.897461,212.514069 351.853027,216.919342 
	C351.903564,221.613220 351.954102,226.307114 351.753754,231.606964 
	C351.198730,234.878052 352.910767,235.473022 355.770477,235.439865 
	C366.211151,235.318771 376.654083,235.391998 387.653076,235.391998 
	C385.925171,245.001587 379.506317,250.716293 373.390289,257.073669 
	C372.972107,257.503540 372.553925,257.933411 371.430237,258.474030 
	C367.994659,260.141693 364.559113,261.809357 360.437775,263.497345 
	C360.003815,263.632050 359.569855,263.766724 358.635986,263.661865 
	C358.077362,264.049561 357.518768,264.437286 356.293274,264.846893 
	C355.857971,264.931488 355.422699,265.016083 354.578766,264.768036 
	C353.629059,265.103668 352.679382,265.439331 350.905853,265.740326 
	C348.707306,265.741302 346.508759,265.742279 344.158081,265.297241 
	C343.439484,265.203247 342.720917,265.109253 341.464142,264.796631 
M132.992401,227.929504 
	C134.034775,228.857788 135.077164,229.786072 136.323288,231.215454 
	C136.586914,231.456696 136.850540,231.697922 137.183273,232.609711 
	C138.785034,234.069366 140.386795,235.529007 142.533569,237.383881 
	C146.074722,241.103821 149.615891,244.823761 153.624161,249.163620 
	C156.409195,249.845932 159.194244,250.528244 162.622604,251.605225 
	C166.871384,252.006012 171.141891,252.834564 175.359451,252.620453 
	C177.357910,252.518982 180.178741,250.875580 181.022186,249.147476 
	C183.389557,244.296997 184.922714,239.039352 186.996368,233.362015 
	C187.011063,232.954147 187.025772,232.546295 187.529327,231.742065 
	C187.912231,230.791824 188.295120,229.841599 189.245987,228.468750 
	C191.944580,220.938110 194.643173,213.407455 197.677353,205.376846 
	C197.755615,205.192017 197.833862,205.007202 198.673523,204.746552 
	C202.143311,207.414352 205.613098,210.082138 209.094238,212.876755 
	C209.094238,212.876755 209.221222,212.885803 209.236908,213.550949 
	C210.193542,215.019226 211.150177,216.487488 211.774216,218.534760 
	C210.352554,220.088486 208.930878,221.642212 206.835938,223.350372 
	C205.912018,224.365219 204.988098,225.380081 203.473511,226.538437 
	C202.322815,227.709030 201.172134,228.879623 199.400497,230.321411 
	C192.642975,234.690552 194.036102,241.474289 194.545380,247.798553 
	C194.637146,248.938232 196.910248,250.578995 198.368546,250.818741 
	C206.092194,252.088577 212.775467,250.424881 217.382202,242.637802 
	C217.703308,242.152206 218.024414,241.666626 218.848694,240.770508 
	C222.472778,237.141922 226.096863,233.513351 230.312073,229.588852 
	C231.511658,228.312073 232.711243,227.035278 234.581863,225.523666 
	C237.714447,220.661224 237.440796,212.476883 233.737625,208.461639 
	C232.788986,207.759811 231.840332,207.057983 230.694077,205.801102 
	C230.386917,205.563736 230.079773,205.326355 229.606064,204.463379 
	C227.721497,202.678146 225.836929,200.892899 223.657379,198.521133 
	C222.347443,197.397934 221.037491,196.274734 219.571014,194.513107 
	C214.522522,189.884598 211.268402,182.428864 202.388184,183.808121 
	C201.487350,183.948044 200.409195,182.760086 199.376053,182.266327 
	C194.443542,179.908981 185.460861,181.182541 183.991318,184.744629 
	C182.360031,188.698746 181.312973,192.893906 179.660721,197.435608 
	C179.464783,197.955551 179.268829,198.475494 178.788010,199.533371 
	C178.739349,199.930603 178.690674,200.327850 178.561417,200.620102 
	C178.561417,200.620102 178.440964,200.674942 177.910629,201.054932 
	C174.869553,209.190521 171.987534,217.391968 168.667282,225.411972 
	C167.907623,227.246948 165.637497,228.456604 163.757553,229.510010 
	C163.299881,229.253403 162.842209,228.996796 162.160355,228.094635 
	C159.882736,225.693024 157.791641,223.071075 155.280518,220.945312 
	C152.107040,218.258789 152.701981,216.268402 155.505463,213.792053 
	C159.476166,210.284729 163.221069,206.519119 167.016144,202.816422 
	C170.294846,199.617569 172.203262,189.798370 170.318817,185.794464 
	C169.985855,185.087021 169.382965,184.394531 168.726959,183.969452 
	C164.560120,181.269394 153.903931,183.747238 150.999084,188.445740 
	C150.999084,188.445740 150.948944,188.895020 150.345490,189.202148 
	C147.904907,191.839554 145.464325,194.476944 142.363281,197.192886 
	C140.958527,198.552933 139.553772,199.912994 137.506042,201.433044 
	C135.123871,203.707611 132.623672,205.872421 130.384689,208.280151 
	C126.050438,212.941025 127.492516,223.825348 132.992401,227.929504 
M507.577942,231.385757 
	C507.624054,233.382721 507.705048,235.379593 507.710693,237.376663 
	C507.753571,252.536606 507.855713,267.697021 507.766846,282.856293 
	C507.741882,287.109924 509.283936,288.905212 513.676086,288.626678 
	C518.322205,288.332001 523.013855,288.340240 527.661987,288.615784 
	C532.053589,288.876068 533.442139,287.157227 533.409973,282.826599 
	C533.259155,262.503265 533.393555,242.177963 533.388855,221.853378 
	C533.383545,198.863403 533.256958,175.873001 533.382507,152.883865 
	C533.406494,148.487076 532.234192,146.437088 527.476318,146.788589 
	C522.837646,147.131287 518.132507,147.116684 513.494019,146.764969 
	C508.892609,146.416061 507.735870,148.579987 507.763428,152.639832 
	C507.844910,164.633759 507.744354,176.628891 507.723267,188.623550 
	C507.713135,194.393539 507.721527,200.163559 507.721527,206.086639 
	C488.408752,206.086639 469.687775,206.086639 450.390198,206.086639 
	C450.390198,203.965042 450.392029,202.174652 450.389893,200.384262 
	C450.371033,184.557816 450.199646,168.729218 450.422852,152.906189 
	C450.491638,148.031082 448.790375,146.393066 444.043304,146.763458 
	C439.572052,147.112320 435.034576,147.104828 430.560181,146.782730 
	C426.078583,146.460144 424.769318,148.310226 424.852386,152.555939 
	C425.031616,161.714081 424.772858,170.879822 424.795807,180.042175 
	C424.881805,214.360092 425.075195,248.677963 425.038300,282.995636 
	C425.033630,287.350464 426.315521,288.967285 430.739258,288.650024 
	C435.545837,288.305328 440.407715,288.363678 445.223785,288.633728 
	C449.260437,288.860077 450.400330,287.170105 450.371765,283.366089 
	C450.254333,267.707214 450.336853,252.046616 450.401886,236.386887 
	C450.410065,234.413986 450.750153,232.442474 451.879028,230.540375 
	C470.305725,230.512421 488.732452,230.484467 507.577942,231.385757 
z"/>
<path fill="#A9A9A9" opacity="1.000000" stroke="none" 
	d="
M10.513435,1.000000 
	C9.267795,9.023727 9.267795,9.023727 1.357980,9.770010 
	C1.000000,7.076724 1.000000,4.153447 1.000000,1.000000 
	C4.006850,1.000000 7.016860,1.000000 10.513435,1.000000 
z"/>
<path fill="#A9A9A9" opacity="1.000000" stroke="none" 
	d="
M659.000000,9.508951 
	C652.520386,9.710528 652.112793,9.256777 651.260498,1.337056 
	C653.588745,1.000000 656.177490,1.000000 659.000000,1.000000 
	C659.000000,3.670323 659.000000,6.344113 659.000000,9.508951 
z"/>
<path fill="#232B67" opacity="1.000000" stroke="none" 
	d="
M1.000000,431.499481 
	C4.761642,431.351318 10.009045,429.176727 9.922371,436.601257 
	C7.103233,437.000000 4.206467,437.000000 1.000000,437.000000 
	C1.000000,435.338440 1.000000,433.668701 1.000000,431.499481 
z"/>
<path fill="#232B67" opacity="1.000000" stroke="none" 
	d="
M653.499512,437.000000 
	C653.079468,436.019836 653.334900,435.016174 653.207581,434.063660 
	C652.689575,430.188660 654.267090,428.512207 658.579773,429.035522 
	C659.000000,431.568115 659.000000,434.136200 659.000000,437.000000 
	C657.337830,437.000000 655.668396,437.000000 653.499512,437.000000 
z"/>
<path fill="#CECECE" opacity="1.000000" stroke="none" 
	d="
M450.936462,230.470322 
	C450.750153,232.442474 450.410065,234.413986 450.401886,236.386887 
	C450.336853,252.046616 450.254333,267.707214 450.371765,283.366089 
	C450.400330,287.170105 449.260437,288.860077 445.223785,288.633728 
	C440.407715,288.363678 435.545837,288.305328 430.739258,288.650024 
	C426.315521,288.967285 425.033630,287.350464 425.038300,282.995636 
	C425.075195,248.677963 424.881805,214.360092 424.795807,180.042175 
	C424.772858,170.879822 425.031616,161.714081 424.852386,152.555939 
	C424.769318,148.310226 426.078583,146.460144 430.560181,146.782730 
	C435.034576,147.104828 439.572052,147.112320 444.043304,146.763458 
	C448.790375,146.393066 450.491638,148.031082 450.422852,152.906189 
	C450.199646,168.729218 450.371033,184.557816 450.389893,200.384262 
	C450.392029,202.174652 450.390198,203.965042 450.390198,206.086639 
	C469.687775,206.086639 488.408752,206.086639 507.721527,206.086639 
	C507.721527,200.163559 507.713135,194.393539 507.723267,188.623550 
	C507.744354,176.628891 507.844910,164.633759 507.763428,152.639832 
	C507.735870,148.579987 508.892609,146.416061 513.494019,146.764969 
	C518.132507,147.116684 522.837646,147.131287 527.476318,146.788589 
	C532.234192,146.437088 533.406494,148.487076 533.382507,152.883865 
	C533.256958,175.873001 533.383545,198.863403 533.388855,221.853378 
	C533.393555,242.177963 533.259155,262.503265 533.409973,282.826599 
	C533.442139,287.157227 532.053589,288.876068 527.661987,288.615784 
	C523.013855,288.340240 518.322205,288.332001 513.676086,288.626678 
	C509.283936,288.905212 507.741882,287.109924 507.766846,282.856293 
	C507.855713,267.697021 507.753571,252.536606 507.710693,237.376663 
	C507.705048,235.379593 507.624054,233.382721 507.656372,230.810547 
	C508.461792,233.164688 509.730164,236.078384 509.815460,239.026337 
	C510.084320,248.318130 509.857269,257.623291 509.952515,266.921936 
	C509.970398,268.668182 510.589386,270.408295 510.939087,272.536011 
	C511.564636,274.639587 512.182129,276.358337 512.765259,278.426147 
	C512.831238,279.993927 512.809387,282.248230 513.050110,282.276611 
	C516.834290,282.723175 520.714417,283.356506 524.430786,282.868195 
	C525.851440,282.681519 526.914978,279.777435 528.502686,277.950775 
	C529.265015,276.428284 530.013916,275.067291 530.016235,273.705078 
	C530.079834,236.301697 530.090271,198.898132 529.985840,161.494934 
	C529.981567,159.958908 528.779236,158.426224 528.107666,156.508484 
	C526.493225,151.403351 517.167664,148.653381 513.422424,151.895416 
	C512.849854,152.391052 512.623474,153.554031 512.625977,154.407196 
	C512.679443,172.532257 512.788574,190.657150 512.653687,208.470581 
	C512.420532,191.362503 512.420532,174.565918 512.420532,157.769318 
	C511.621216,157.696243 510.821899,157.623169 510.022583,157.550079 
	C509.674377,159.622101 509.022491,161.694794 509.027161,163.766022 
	C509.057831,177.350754 509.024109,190.942017 509.475800,204.515701 
	C509.620911,208.875717 507.543976,208.966812 504.411530,208.955734 
	C488.451172,208.899292 472.489899,208.869019 456.530609,209.012054 
	C454.628174,209.029099 452.735657,210.157898 450.560730,210.770920 
	C449.912445,210.771301 449.541992,210.772156 449.058228,210.418274 
	C448.316620,207.546783 447.179474,205.036957 447.145111,202.512131 
	C446.963684,189.192841 447.077271,175.869705 447.038055,162.548050 
	C447.033386,160.954971 446.722504,159.362762 446.553558,157.770157 
	C446.042023,157.817062 445.530518,157.863968 445.018982,157.910873 
	C445.018982,159.687225 445.018951,161.463593 445.019012,163.239944 
	C445.019470,176.561707 445.059509,189.883713 444.976105,203.204956 
	C444.964142,205.115280 444.356415,207.021881 444.006409,208.466217 
	C443.979156,207.170303 443.961792,206.338379 443.961700,205.506470 
	C443.959991,189.033203 443.869476,172.559067 444.026245,156.087296 
	C444.063751,152.148102 442.620148,150.868317 438.782013,150.830734 
	C428.751343,150.732559 428.777588,150.596252 429.415070,161.405930 
	C429.510864,163.030792 429.156128,164.677338 429.165527,166.312958 
	C429.255920,182.021606 429.506989,197.730423 429.463257,213.438492 
	C429.402252,235.334305 429.076904,257.229492 429.073212,279.125000 
	C429.072998,280.421051 430.812531,282.708496 431.934662,282.835388 
	C435.956116,283.290192 440.060303,283.013672 443.973999,283.013672 
	C443.973999,264.800018 443.955109,247.332489 444.013702,229.865204 
	C444.017914,228.615891 444.589020,227.368469 444.928589,226.473938 
	C445.018799,228.978516 445.499084,230.287857 448.157990,229.146637 
	C448.780151,228.879593 449.994507,229.992371 450.936462,230.470322 
z"/>
<path fill="#A9A9A9" opacity="1.000000" stroke="none" 
	d="
M414.158386,227.971191 
	C414.167603,243.186951 410.402374,257.092560 400.442352,269.029388 
	C393.189575,277.721680 384.285797,284.562469 373.559265,287.266693 
	C347.840759,293.750519 322.576233,292.560852 300.999542,275.177368 
	C285.139496,262.399536 276.837219,245.027466 276.432587,224.289734 
	C276.175385,211.108887 276.084869,198.053589 281.947418,185.662216 
	C296.943390,153.966217 326.043152,141.765625 358.895599,145.298248 
	C370.426788,146.538223 381.469238,149.199890 391.198883,156.071152 
	C396.061127,159.504929 398.364563,166.594940 395.541504,171.942795 
	C390.806519,180.912521 383.314178,182.430328 374.140717,178.180130 
	C369.325836,175.949326 364.768585,173.007828 359.776276,171.343124 
	C343.649445,165.965500 330.897095,173.685028 319.227142,183.276001 
	C312.654388,188.677841 307.794342,195.823196 305.130554,204.159424 
	C299.182739,222.772751 305.220917,238.002289 318.230469,251.415665 
	C324.329010,257.703491 331.747040,261.530975 339.708374,264.578308 
	C334.306030,263.029419 329.085907,261.150238 323.700256,259.005280 
	C322.666016,258.213989 321.797302,257.688477 320.799622,256.841797 
	C317.011963,252.724213 313.374908,248.906448 309.677246,245.148346 
	C308.891968,244.350281 307.885712,243.769699 306.727783,242.849243 
	C301.083252,234.777786 300.734924,225.611908 300.214050,216.692398 
	C299.728973,208.385437 302.003601,200.415588 306.316589,192.893555 
	C307.420410,191.502884 308.227692,190.258713 309.319275,188.870544 
	C310.730835,187.473984 311.858032,186.221405 313.291382,184.837402 
	C317.071259,181.473709 320.544983,178.241440 324.262054,174.984375 
	C324.505402,174.959564 324.987305,174.875092 325.309509,174.895813 
	C326.462708,174.299744 327.293671,173.682983 328.494507,173.053741 
	C329.510864,172.901352 330.238647,172.907639 330.791870,172.600021 
	C343.814911,165.358109 356.660156,166.254669 369.677551,172.870285 
	C373.096649,174.607910 377.215729,174.968079 381.347046,176.026001 
	C382.129669,176.153290 382.578613,176.215408 383.276978,176.510803 
	C387.909485,176.648087 392.606232,172.524460 393.047211,168.498215 
	C393.932373,160.416946 391.448364,157.445358 381.050507,153.566589 
	C374.574280,151.150726 367.639496,149.937607 360.879211,148.315018 
	C344.215057,144.315247 328.089050,147.677155 313.459747,154.991760 
	C298.563232,162.439926 289.133881,176.095917 281.545013,191.236938 
	C280.613617,196.396637 279.912201,201.236145 279.141968,206.482666 
	C279.007812,208.263809 278.942474,209.637939 278.651978,211.244720 
	C278.353577,212.330566 278.280304,213.183777 278.155609,214.458160 
	C278.141144,216.573441 278.178101,218.267532 278.159271,220.313965 
	C278.873383,221.613876 279.643250,222.561462 280.422546,223.880096 
	C280.414886,225.489960 280.397827,226.728806 280.183716,228.316986 
	C280.658844,234.110718 281.330994,239.555099 282.034424,245.354187 
	C284.283966,248.592346 286.502197,251.475784 288.714203,254.692291 
	C288.795532,255.685043 288.883057,256.344727 288.998657,257.362671 
	C290.338806,259.829010 291.650879,261.937103 292.980865,264.022491 
	C292.998779,263.999786 292.954376,264.037323 293.094910,264.334961 
	C294.450073,265.506439 295.664703,266.380280 297.007568,267.490784 
	C297.672394,268.192749 298.209015,268.658020 298.840240,269.457458 
	C303.972382,277.465485 313.363007,278.702087 320.264771,284.292175 
	C325.998291,285.451080 331.455017,286.346191 337.133484,287.422058 
	C337.909729,287.677856 338.464264,287.752899 339.451691,287.885742 
	C341.921478,287.955078 343.958405,287.966675 346.431641,288.028198 
	C348.914490,288.036316 350.961060,287.994507 353.380249,287.984619 
	C354.498688,287.977661 355.244507,287.938843 356.347046,287.950195 
	C357.832275,287.740448 358.960815,287.480499 360.509979,287.223145 
	C364.283936,286.790344 367.637299,286.354950 371.320312,285.950439 
	C372.448425,285.691223 373.246796,285.401123 374.398071,285.102325 
	C376.539398,283.810242 378.327820,282.526794 380.458435,281.156403 
	C384.602509,278.750580 388.404449,276.431732 392.402710,274.011963 
	C392.843994,273.729645 393.015198,273.494598 393.385925,273.027832 
	C394.179169,271.932587 394.699158,271.015350 395.495056,269.933350 
	C397.548065,267.908447 399.325134,266.048279 401.410278,264.004486 
	C403.518860,259.220642 405.319366,254.620453 407.298706,249.705139 
	C409.031860,244.269073 410.586090,239.148102 412.248566,233.678986 
	C412.957336,231.544281 413.557861,229.757736 414.158386,227.971191 
z"/>
<path fill="#CECECE" opacity="1.000000" stroke="none" 
	d="
M355.998932,213.005020 
	C373.357300,212.954575 390.715668,212.904129 408.800903,213.149521 
	C411.066772,213.974258 412.605774,214.503174 414.144775,215.032074 
	C414.220428,215.474121 414.296082,215.916138 413.839813,216.608368 
	C410.085785,216.224731 406.872345,215.101120 403.640045,215.043915 
	C391.259796,214.824738 378.872803,214.883789 366.490417,215.025024 
	C364.937256,215.042740 363.396759,216.168564 361.440979,216.815079 
	C354.705780,216.408264 356.157593,221.028366 355.834137,224.655487 
	C355.423950,229.254623 358.314789,229.178482 361.531464,229.151611 
	C370.493347,229.076706 379.456512,229.097000 388.418793,229.145447 
	C393.593262,229.173416 394.730865,230.464035 393.471832,235.494934 
	C392.602692,238.967789 391.359467,242.392853 389.885559,245.659775 
	C385.814270,254.683594 379.758575,261.775665 369.559326,264.959930 
	C367.083099,265.566162 365.022186,266.173553 362.580750,266.797516 
	C361.116516,266.369202 360.032745,265.924316 358.949951,265.283356 
	C359.012543,264.691956 359.074219,264.296692 359.135895,263.901398 
	C359.569855,263.766724 360.003815,263.632050 361.057098,263.668243 
	C365.162842,262.013855 368.649292,260.188568 372.135712,258.363281 
	C372.553925,257.933411 372.972107,257.503540 374.047058,257.060455 
	C382.359619,251.455856 387.636688,244.281036 390.487518,234.355484 
	C387.754944,234.217987 385.987213,234.060501 384.218750,234.051605 
	C375.584534,234.008163 366.942413,234.196457 358.321198,233.850830 
	C356.181061,233.765030 354.108337,231.996201 352.004639,231.001007 
	C351.954102,226.307114 351.903564,221.613220 352.171021,216.250671 
	C353.658966,214.723007 354.828949,213.863998 355.998932,213.005020 
z"/>
<path fill="#2A468C" opacity="1.000000" stroke="none" 
	d="
M137.114166,231.939163 
	C136.850540,231.697922 136.586914,231.456696 136.274963,230.599457 
	C136.485550,221.657257 136.744476,213.331070 137.140839,204.703766 
	C137.568512,203.359467 137.858780,202.316254 138.149033,201.273056 
	C139.553772,199.912994 140.958527,198.552933 142.691742,197.593826 
	C142.671570,203.139862 142.322906,208.284958 141.934555,214.015747 
	C144.557800,213.335861 146.740738,212.099289 147.480804,212.685211 
	C153.026260,217.075470 154.329468,211.411911 157.323639,208.919983 
	C159.454956,207.256134 161.254196,205.649200 163.339157,203.862045 
	C169.667343,200.111923 169.403412,194.268738 168.878525,188.483917 
	C168.773575,187.327179 167.394058,185.368515 166.569473,185.351349 
	C162.721268,185.271149 158.861572,185.741898 154.720734,186.155670 
	C153.327240,186.866333 152.218994,187.437012 151.110764,188.007675 
	C153.903931,183.747238 164.560120,181.269394 168.726959,183.969452 
	C169.382965,184.394531 169.985855,185.087021 170.318817,185.794464 
	C172.203262,189.798370 170.294846,199.617569 167.016144,202.816422 
	C163.221069,206.519119 159.476166,210.284729 155.505463,213.792053 
	C152.701981,216.268402 152.107040,218.258789 155.280518,220.945312 
	C157.791641,223.071075 159.882736,225.693024 161.900101,228.453003 
	C156.350708,224.512558 150.804077,220.793533 142.247314,221.029175 
	C143.142883,225.906860 143.965866,230.776642 144.945908,235.614578 
	C145.871399,240.183304 148.660980,243.264618 152.990143,245.361282 
	C153.065720,246.658600 153.111389,247.601151 153.157059,248.543701 
	C149.615891,244.823761 146.074722,241.103821 142.216095,236.848679 
	C140.303818,234.855362 138.708984,233.397263 137.114166,231.939163 
z"/>
<path fill="#2F79C1" opacity="1.000000" stroke="none" 
	d="
M233.910812,225.758484 
	C232.711243,227.035278 231.511658,228.312073 229.677612,229.730927 
	C228.364258,229.892960 227.685394,229.912888 226.706238,229.704193 
	C222.361206,228.134781 219.195847,229.207687 216.741486,232.919357 
	C216.495529,232.931564 216.004105,232.965057 215.842255,232.597260 
	C216.121704,227.487213 216.562988,222.744965 217.006195,217.668274 
	C217.007446,216.887970 217.006775,216.442062 217.009094,215.617218 
	C216.156570,210.827209 215.301071,206.416153 214.445587,202.005096 
	C215.069717,201.722931 215.693848,201.440781 216.317993,201.158630 
	C217.951416,202.673355 219.534607,204.247101 221.229294,205.689880 
	C224.258286,208.268570 227.493378,208.712234 230.891678,206.356155 
	C231.840332,207.057983 232.788986,207.759811 233.859680,209.193665 
	C233.958115,215.203293 233.934464,220.480896 233.910812,225.758484 
M224.106735,209.581100 
	C222.234329,214.375137 222.358521,219.036285 224.418823,223.918762 
	C232.349167,218.884186 232.579315,216.735657 226.367706,210.889587 
	C225.889938,210.439926 225.327042,210.080750 224.106735,209.581100 
z"/>
<path fill="#F3F3F3" opacity="1.000000" stroke="none" 
	d="
M451.407715,230.505341 
	C449.994507,229.992371 448.780151,228.879593 448.157990,229.146637 
	C445.499084,230.287857 445.018799,228.978516 445.277924,226.296494 
	C447.038818,225.619720 449.090118,224.789825 449.825012,225.442383 
	C453.852875,229.019089 458.608826,227.923935 463.147430,227.966492 
	C474.280823,228.070938 485.422119,228.211838 496.546783,227.883301 
	C500.319672,227.771896 504.031372,226.179398 507.814606,225.509933 
	C509.141663,225.275085 510.599243,225.777695 511.992249,226.417816 
	C511.984131,240.084732 512.022522,253.277725 511.931244,266.469788 
	C511.918121,268.365845 511.279877,270.257507 510.930939,272.151215 
	C510.589386,270.408295 509.970398,268.668182 509.952515,266.921936 
	C509.857269,257.623291 510.084320,248.318130 509.815460,239.026337 
	C509.730164,236.078384 508.461792,233.164688 507.446991,230.345917 
	C488.732452,230.484467 470.305725,230.512421 451.407715,230.505341 
z"/>
<path fill="#2D67AE" opacity="1.000000" stroke="none" 
	d="
M197.912125,204.822372 
	C197.833862,205.007202 197.755615,205.192017 197.248932,205.779541 
	C194.566467,210.133469 192.312424,214.084686 189.687744,218.081543 
	C186.762589,220.091858 184.208069,222.056549 180.992554,224.529617 
	C180.992554,222.125641 181.349457,219.992737 180.910477,218.038635 
	C180.219452,214.962646 178.992889,212.006958 177.990753,208.580872 
	C178.139297,205.665924 178.290131,203.170441 178.440964,200.674942 
	C178.440964,200.674942 178.561417,200.620102 178.899841,200.710175 
	C179.605972,200.566833 179.973663,200.333435 180.341354,200.100021 
	C179.918533,199.731827 179.495712,199.363632 179.072876,198.995438 
	C179.268829,198.475494 179.464783,197.955551 180.182922,197.130081 
	C182.137283,193.391296 183.676712,189.998062 184.975555,186.515091 
	C186.769135,181.705399 190.863953,183.029404 194.236557,183.188568 
	C195.768204,183.260864 198.396927,184.855179 198.497879,185.946869 
	C198.834747,189.589020 198.253235,193.316101 197.790771,196.778809 
	C197.055725,195.361267 196.553528,194.175568 196.045288,192.587799 
	C196.185623,188.646011 195.340012,185.923584 190.825089,185.878647 
	C190.100418,186.124405 189.555939,186.567383 189.005737,187.005188 
	C189.000000,187.000000 189.010406,187.011475 188.739899,187.053925 
	C188.324097,187.731720 188.178833,188.367050 187.982422,189.318359 
	C187.607895,190.422028 187.284500,191.209747 186.652649,192.207321 
	C182.453140,200.490662 184.286667,208.868393 184.878708,217.369324 
	C187.755280,211.401566 190.748322,205.864304 197.611923,204.117050 
	C197.771133,204.512024 197.841629,204.667206 197.912125,204.822372 
z"/>
<path fill="#293C82" opacity="1.000000" stroke="none" 
	d="
M198.292816,204.784454 
	C197.841629,204.667206 197.771133,204.512024 197.734619,203.703110 
	C197.853622,201.036469 197.938629,199.023560 198.023621,197.010651 
	C198.253235,193.316101 198.834747,189.589020 198.497879,185.946869 
	C198.396927,184.855179 195.768204,183.260864 194.236557,183.188568 
	C190.863953,183.029404 186.769135,181.705399 184.975555,186.515091 
	C183.676712,189.998062 182.137283,193.391296 180.358322,196.904327 
	C181.312973,192.893906 182.360031,188.698746 183.991318,184.744629 
	C185.460861,181.182541 194.443542,179.908981 199.376053,182.266327 
	C200.409195,182.760086 201.487350,183.948044 202.388184,183.808121 
	C211.268402,182.428864 214.522522,189.884598 219.540894,194.889740 
	C219.510773,195.266388 219.264542,195.269943 218.903763,195.150635 
	C214.275787,191.182358 208.754974,190.972290 203.124100,189.774918 
	C203.246780,197.150269 200.777328,205.026474 209.027771,210.342041 
	C209.057999,211.374786 209.070450,212.062347 209.082916,212.749924 
	C205.613098,210.082138 202.143311,207.414352 198.292816,204.784454 
z"/>
<path fill="#2C5AA3" opacity="1.000000" stroke="none" 
	d="
M209.088577,212.813339 
	C209.070450,212.062347 209.057999,211.374786 209.028442,209.927246 
	C208.606628,204.593353 208.201904,200.019424 207.797180,195.445496 
	C208.421066,195.247604 209.044952,195.049713 209.668854,194.851807 
	C210.780396,195.877518 211.891937,196.903214 212.856979,198.277954 
	C212.212189,200.690491 211.643250,202.740067 211.233536,204.820999 
	C210.723282,207.412659 214.608154,214.814178 217.006104,215.996170 
	C217.006775,216.442062 217.007446,216.887970 216.660385,217.724930 
	C211.627914,221.178955 209.582825,229.974319 212.533569,236.269119 
	C213.794815,235.068359 214.899460,234.016708 216.004089,232.965057 
	C216.004105,232.965057 216.495529,232.931564 216.903336,233.210831 
	C221.909851,236.029861 223.989059,231.702759 227.006516,229.932816 
	C227.685394,229.912888 228.364258,229.892960 229.382050,229.878906 
	C226.096863,233.513351 222.472778,237.141922 218.207886,240.899719 
	C214.734024,239.914154 211.900955,238.799393 208.097198,237.302658 
	C208.176086,235.626480 208.465149,232.914307 208.381989,230.213577 
	C208.309769,227.867630 207.816437,225.534637 207.509216,223.195923 
	C208.930878,221.642212 210.352554,220.088486 212.145798,218.025055 
	C211.418655,215.972168 210.319946,214.428986 209.221222,212.885803 
	C209.221222,212.885803 209.094238,212.876755 209.088577,212.813339 
z"/>
<path fill="#293C82" opacity="1.000000" stroke="none" 
	d="
M178.175797,200.864929 
	C178.290131,203.170441 178.139297,205.665924 177.743256,208.841980 
	C176.988083,211.684113 176.478088,213.845688 175.729980,216.288574 
	C171.368851,226.453384 173.294495,236.838135 172.627411,247.099884 
	C170.120163,248.374817 167.952454,249.586014 165.837555,250.509613 
	C165.959351,249.838379 166.028336,249.454758 166.457840,248.923706 
	C168.943176,243.707840 168.721664,238.779602 165.883484,233.725464 
	C165.523788,232.983261 165.216202,232.520233 164.818848,231.786850 
	C164.506897,230.995682 164.284714,230.474854 164.062546,229.954041 
	C165.637497,228.456604 167.907623,227.246948 168.667282,225.411972 
	C171.987534,217.391968 174.869553,209.190521 178.175797,200.864929 
z"/>
<path fill="#2F79C1" opacity="1.000000" stroke="none" 
	d="
M164.908630,232.057205 
	C165.216202,232.520233 165.523788,232.983261 165.694214,233.970245 
	C165.411865,236.342422 165.266663,238.190674 164.844711,239.819550 
	C163.185242,238.337250 161.802505,237.074295 159.979141,235.408875 
	C157.600143,245.352966 158.408798,246.616119 165.257782,245.264297 
	C165.693024,246.713425 165.895172,247.892273 166.097321,249.071136 
	C166.028336,249.454758 165.959351,249.838379 165.454071,250.514374 
	C164.004944,250.941360 162.992111,251.075958 161.979279,251.210571 
	C159.194244,250.528244 156.409195,249.845932 153.390610,248.853668 
	C153.111389,247.601151 153.065720,246.658600 153.214752,245.176086 
	C153.595688,244.096909 153.781891,243.557709 153.968079,242.654144 
	C153.081726,238.064255 150.927322,233.731598 155.359421,230.093872 
	C158.773773,230.860214 161.841202,231.458710 164.908630,232.057205 
z"/>
<path fill="#2C5AA3" opacity="1.000000" stroke="none" 
	d="
M175.968109,216.007248 
	C176.478088,213.845688 176.988083,211.684113 177.745560,209.261444 
	C178.992889,212.006958 180.219452,214.962646 180.910477,218.038635 
	C181.349457,219.992737 180.992554,222.125641 180.992554,224.529617 
	C184.208069,222.056549 186.762589,220.091858 189.665833,218.471741 
	C189.569061,222.174652 189.123535,225.533005 188.678009,228.891357 
	C188.295120,229.841599 187.912231,230.791824 187.224304,231.618073 
	C183.687943,232.603790 180.456619,233.713470 176.981689,234.906815 
	C176.981689,233.873367 177.084900,231.753784 176.960464,229.647659 
	C176.691605,225.097198 176.305969,220.553635 175.968109,216.007248 
z"/>
<path fill="#2A468C" opacity="1.000000" stroke="none" 
	d="
M175.729980,216.288574 
	C176.305969,220.553635 176.691605,225.097198 176.960464,229.647659 
	C177.084900,231.753784 176.981689,233.873367 176.981689,234.906815 
	C180.456619,233.713470 183.687943,232.603790 186.979858,231.816254 
	C187.025772,232.546295 187.011063,232.954147 186.579727,233.751694 
	C182.217941,238.903809 180.245209,245.684738 172.966949,247.036163 
	C173.294495,236.838135 171.368851,226.453384 175.729980,216.288574 
z"/>
<path fill="#2C5AA3" opacity="1.000000" stroke="none" 
	d="
M153.968109,243.018509 
	C153.781891,243.557709 153.595688,244.096909 153.184845,244.821320 
	C148.660980,243.264618 145.871399,240.183304 144.945908,235.614578 
	C143.965866,230.776642 143.142883,225.906860 142.247314,221.029175 
	C150.804077,220.793533 156.350708,224.512558 162.012192,228.775772 
	C162.842209,228.996796 163.299881,229.253403 163.910049,229.732025 
	C164.284714,230.474854 164.506897,230.995682 164.818848,231.786850 
	C161.841202,231.458710 158.773773,230.860214 155.189636,229.813019 
	C152.841644,227.574753 151.010361,225.785187 149.103104,223.921371 
	C145.207275,229.691513 147.957901,239.326950 153.968109,243.018509 
z"/>
<path fill="#232B67" opacity="1.000000" stroke="none" 
	d="
M216.883286,242.956390 
	C212.775467,250.424881 206.092194,252.088577 198.368546,250.818741 
	C196.910248,250.578995 194.637146,248.938232 194.545380,247.798553 
	C194.036102,241.474289 192.642975,234.690552 199.704559,230.599899 
	C199.535889,234.158585 198.788177,237.432510 198.713272,240.721756 
	C198.678864,242.231689 199.541992,244.402267 200.722244,245.194656 
	C207.837662,249.971710 208.533981,249.762436 214.385696,243.039551 
	C215.456039,242.997238 216.169662,242.976822 216.883286,242.956390 
z"/>
<path fill="#A9A9A9" opacity="1.000000" stroke="none" 
	d="
M351.879211,231.303986 
	C354.108337,231.996201 356.181061,233.765030 358.321198,233.850830 
	C366.942413,234.196457 375.584534,234.008163 384.218750,234.051605 
	C385.987213,234.060501 387.754944,234.217987 390.487518,234.355484 
	C387.636688,244.281036 382.359619,251.455856 374.353058,257.024200 
	C379.506317,250.716293 385.925171,245.001587 387.653076,235.391998 
	C376.654083,235.391998 366.211151,235.318771 355.770477,235.439865 
	C352.910767,235.473022 351.198730,234.878052 351.879211,231.303986 
z"/>
<path fill="#2D67AE" opacity="1.000000" stroke="none" 
	d="
M151.054932,188.226715 
	C152.218994,187.437012 153.327240,186.866333 154.705704,186.550751 
	C154.406769,189.201126 153.748566,191.579529 153.289902,193.995773 
	C152.649017,197.371826 152.157013,200.776123 151.710495,203.501938 
	C156.421402,203.726334 159.737427,203.884308 163.053436,204.042267 
	C161.254196,205.649200 159.454956,207.256134 157.027557,208.681458 
	C153.151810,208.841949 149.904205,209.184036 145.742218,209.622437 
	C146.194733,206.740067 146.471115,203.382339 147.292145,200.163528 
	C148.266205,196.344910 149.709183,192.645874 150.948944,188.895020 
	C150.948944,188.895020 150.999084,188.445740 151.054932,188.226715 
z"/>
<path fill="#2D67AE" opacity="1.000000" stroke="none" 
	d="
M217.009094,215.617218 
	C214.608154,214.814178 210.723282,207.412659 211.233536,204.820999 
	C211.643250,202.740067 212.212189,200.690491 213.155457,198.418777 
	C215.488464,197.230362 217.376511,196.250168 219.264557,195.269958 
	C219.264542,195.269943 219.510773,195.266388 219.619156,195.208954 
	C221.037491,196.274734 222.347443,197.397934 223.808945,199.172363 
	C225.897873,201.578720 227.835251,203.333847 229.772614,205.088989 
	C230.079773,205.326355 230.386917,205.563736 230.792877,206.078629 
	C227.493378,208.712234 224.258286,208.268570 221.229294,205.689880 
	C219.534607,204.247101 217.951416,202.673355 216.317993,201.158630 
	C215.693848,201.440781 215.069717,201.722931 214.445587,202.005096 
	C215.301071,206.416153 216.156570,210.827209 217.009094,215.617218 
z"/>
<path fill="#293C82" opacity="1.000000" stroke="none" 
	d="
M214.028976,243.061432 
	C208.533981,249.762436 207.837662,249.971710 200.722244,245.194656 
	C199.541992,244.402267 198.678864,242.231689 198.713272,240.721756 
	C198.788177,237.432510 199.535889,234.158585 200.015045,230.464294 
	C201.172134,228.879623 202.322815,227.709030 203.827454,226.773483 
	C204.181381,232.457275 204.181381,237.906036 204.181381,242.240753 
	C208.148270,242.571350 211.088623,242.816391 214.028976,243.061432 
z"/>
<path fill="#2C5AA3" opacity="1.000000" stroke="none" 
	d="
M150.647217,189.048584 
	C149.709183,192.645874 148.266205,196.344910 147.292145,200.163528 
	C146.471115,203.382339 146.194733,206.740067 145.742218,209.622437 
	C149.904205,209.184036 153.151810,208.841949 156.695496,208.738373 
	C154.329468,211.411911 153.026260,217.075470 147.480804,212.685211 
	C146.740738,212.099289 144.557800,213.335861 141.934555,214.015747 
	C142.322906,208.284958 142.671570,203.139862 143.021973,197.554550 
	C145.464325,194.476944 147.904907,191.839554 150.647217,189.048584 
z"/>
<path fill="#232B67" opacity="1.000000" stroke="none" 
	d="
M172.627411,247.099884 
	C180.245209,245.684738 182.217941,238.903809 186.473999,234.041840 
	C184.922714,239.039352 183.389557,244.296997 181.022186,249.147476 
	C180.178741,250.875580 177.357910,252.518982 175.359451,252.620453 
	C171.141891,252.834564 166.871384,252.006012 162.300934,251.407898 
	C162.992111,251.075958 164.004944,250.941360 165.401260,250.801987 
	C167.952454,249.586014 170.120163,248.374817 172.627411,247.099884 
z"/>
<path fill="#E8E8E8" opacity="1.000000" stroke="none" 
	d="
M361.850372,216.780975 
	C363.396759,216.168564 364.937256,215.042740 366.490417,215.025024 
	C378.872803,214.883789 391.259796,214.824738 403.640045,215.043915 
	C406.872345,215.101120 410.085785,216.224731 413.703522,216.919861 
	C414.177795,217.744888 414.256409,218.508606 413.823120,219.627441 
	C411.866852,219.663864 410.422455,219.345184 408.649292,218.825241 
	C406.132019,218.079758 403.950653,217.098267 401.753998,217.062912 
	C388.454712,216.848953 375.151978,216.851074 361.850372,216.780975 
z"/>
<path fill="#F3F3F3" opacity="1.000000" stroke="none" 
	d="
M358.949005,265.479431 
	C360.032745,265.924316 361.116516,266.369202 362.592224,267.108582 
	C362.989471,267.608978 362.994751,267.814850 362.793335,268.185120 
	C356.874146,269.233398 351.175629,270.651672 345.443970,270.801178 
	C341.988586,270.891327 338.481750,269.008514 335.114410,267.760681 
	C335.486267,267.018616 335.741730,266.528137 336.425171,266.031006 
	C338.565643,266.019409 340.278046,266.014526 342.385620,266.032837 
	C343.290558,265.951813 343.800385,265.847565 344.310211,265.743286 
	C346.508759,265.742279 348.707306,265.741302 351.654907,265.906372 
	C353.265076,265.748474 354.126251,265.424561 354.987396,265.100677 
	C355.422699,265.016083 355.857971,264.931488 356.781799,265.081787 
	C357.829865,265.370941 358.389435,265.425201 358.949005,265.479431 
z"/>
<path fill="#2A468C" opacity="1.000000" stroke="none" 
	d="
M214.385696,243.039551 
	C211.088623,242.816391 208.148270,242.571350 204.181381,242.240753 
	C204.181381,237.906036 204.181381,232.457275 204.122787,226.701736 
	C204.988098,225.380081 205.912018,224.365219 207.172577,223.273148 
	C207.816437,225.534637 208.309769,227.867630 208.381989,230.213577 
	C208.465149,232.914307 208.176086,235.626480 208.097198,237.302658 
	C211.900955,238.799393 214.734024,239.914154 217.956299,241.104980 
	C218.024414,241.666626 217.703308,242.152206 217.132751,242.797089 
	C216.169662,242.976822 215.456039,242.997238 214.385696,243.039551 
z"/>
<path fill="#293C82" opacity="1.000000" stroke="none" 
	d="
M137.003403,205.004868 
	C136.744476,213.331070 136.485550,221.657257 136.173096,230.348907 
	C135.077164,229.786072 134.034775,228.857788 132.940887,227.185944 
	C132.670395,225.306656 132.251617,224.168472 132.265533,223.035599 
	C132.344055,216.642731 129.662872,209.493423 137.003403,205.004868 
z"/>
<path fill="#232B67" opacity="1.000000" stroke="none" 
	d="
M137.140839,204.703766 
	C129.662872,209.493423 132.344055,216.642731 132.265533,223.035599 
	C132.251617,224.168472 132.670395,225.306656 132.841675,226.892548 
	C127.492516,223.825348 126.050438,212.941025 130.384689,208.280151 
	C132.623672,205.872421 135.123871,203.707611 137.827545,201.353058 
	C137.858780,202.316254 137.568512,203.359467 137.140839,204.703766 
z"/>
<path fill="#F3F3F3" opacity="1.000000" stroke="none" 
	d="
M408.978088,219.026489 
	C410.422455,219.345184 411.866852,219.663864 413.683624,219.989136 
	C414.135742,222.361115 414.215454,224.726517 414.226807,227.531555 
	C413.557861,229.757736 412.957336,231.544281 411.894501,233.753143 
	C409.931824,236.076187 408.431458,237.976913 406.989380,239.548370 
	C407.691132,232.488251 408.334595,225.757370 408.978088,219.026489 
z"/>
<path fill="#293C82" opacity="1.000000" stroke="none" 
	d="
M188.962006,228.680054 
	C189.123535,225.533005 189.569061,222.174652 190.036499,218.426102 
	C192.312424,214.084686 194.566467,210.133469 197.081146,206.029510 
	C194.643173,213.407455 191.944580,220.938110 188.962006,228.680054 
z"/>
<path fill="#2C5AA3" opacity="1.000000" stroke="none" 
	d="
M234.246338,225.641083 
	C233.934464,220.480896 233.958115,215.203293 234.005432,209.459045 
	C237.440796,212.476883 237.714447,220.661224 234.246338,225.641083 
z"/>
<path fill="#CECECE" opacity="1.000000" stroke="none" 
	d="
M341.990479,266.009613 
	C340.278046,266.014526 338.565643,266.019409 336.138855,265.785828 
	C332.583649,265.082062 329.742859,264.616821 326.650757,264.018372 
	C325.886719,263.643158 325.373901,263.401154 324.854095,262.814423 
	C324.519958,261.403473 324.192871,260.337250 323.865784,259.271027 
	C329.085907,261.150238 334.306030,263.029419 339.917969,264.849060 
	C340.694550,264.791931 341.079346,264.794281 341.720764,265.154419 
	C341.977417,265.512238 341.990479,266.009613 341.990479,266.009613 
z"/>
<path fill="#A9A9A9" opacity="1.000000" stroke="none" 
	d="
M371.782959,258.418640 
	C368.649292,260.188568 365.162842,262.013855 361.399994,263.658081 
	C364.559113,261.809357 367.994659,260.141693 371.782959,258.418640 
z"/>
<path fill="#2A468C" opacity="1.000000" stroke="none" 
	d="
M229.689331,204.776184 
	C227.835251,203.333847 225.897873,201.578720 223.956436,199.465607 
	C225.836929,200.892899 227.721497,202.678146 229.689331,204.776184 
z"/>
<path fill="#A9A9A9" opacity="1.000000" stroke="none" 
	d="
M414.267242,214.788208 
	C412.605774,214.503174 411.066772,213.974258 409.264404,213.224640 
	C410.797272,213.517410 412.593475,214.030884 414.267242,214.788208 
z"/>
<path fill="#A9A9A9" opacity="1.000000" stroke="none" 
	d="
M355.727234,212.880737 
	C354.828949,213.863998 353.658966,214.723007 352.248505,215.789948 
	C350.897461,212.514069 353.169861,212.628220 355.727234,212.880737 
z"/>
<path fill="#232B67" opacity="1.000000" stroke="none" 
	d="
M137.148712,232.274445 
	C138.708984,233.397263 140.303818,234.855362 141.943604,236.651062 
	C140.386795,235.529007 138.785034,234.069366 137.148712,232.274445 
z"/>
<path fill="#293C82" opacity="1.000000" stroke="none" 
	d="
M209.229065,213.218384 
	C210.319946,214.428986 211.418655,215.972168 212.312103,217.735565 
	C211.150177,216.487488 210.193542,215.019226 209.229065,213.218384 
z"/>
<path fill="#A9A9A9" opacity="1.000000" stroke="none" 
	d="
M354.783081,264.934357 
	C354.126251,265.424561 353.265076,265.748474 352.066803,265.923676 
	C352.679382,265.439331 353.629059,265.103668 354.783081,264.934357 
z"/>
<path fill="#A9A9A9" opacity="1.000000" stroke="none" 
	d="
M358.949951,265.283325 
	C358.389435,265.425201 357.829865,265.370941 357.115234,265.070862 
	C357.518768,264.437286 358.077362,264.049561 358.885925,263.781616 
	C359.074219,264.296692 359.012543,264.691956 358.949951,265.283325 
z"/>
<path fill="#A9A9A9" opacity="1.000000" stroke="none" 
	d="
M342.385620,266.032837 
	C341.990479,266.009613 341.977417,265.512238 341.989868,265.263733 
	C342.720917,265.109253 343.439484,265.203247 344.234131,265.520264 
	C343.800385,265.847565 343.290558,265.951813 342.385620,266.032837 
z"/>
<path fill="#2C5AA3" opacity="1.000000" stroke="none" 
	d="
M178.930450,199.264404 
	C179.495712,199.363632 179.918533,199.731827 180.341354,200.100021 
	C179.973663,200.333435 179.605972,200.566833 178.940155,200.762665 
	C178.690674,200.327850 178.739349,199.930603 178.930450,199.264404 
z"/>
<path fill="#FEFEFE" opacity="1.000000" stroke="none" 
	d="
M511.997253,225.943573 
	C510.599243,225.777695 509.141663,225.275085 507.814606,225.509933 
	C504.031372,226.179398 500.319672,227.771896 496.546783,227.883301 
	C485.422119,228.211838 474.280823,228.070938 463.147430,227.966492 
	C458.608826,227.923935 453.852875,229.019089 449.825012,225.442383 
	C449.090118,224.789825 447.038818,225.619720 445.245850,225.942719 
	C444.589020,227.368469 444.017914,228.615891 444.013702,229.865204 
	C443.955109,247.332489 443.973999,264.800018 443.973999,283.013672 
	C440.060303,283.013672 435.956116,283.290192 431.934662,282.835388 
	C430.812531,282.708496 429.072998,280.421051 429.073212,279.125000 
	C429.076904,257.229492 429.402252,235.334305 429.463257,213.438492 
	C429.506989,197.730423 429.255920,182.021606 429.165527,166.312958 
	C429.156128,164.677338 429.510864,163.030792 429.415070,161.405930 
	C428.777588,150.596252 428.751343,150.732559 438.782013,150.830734 
	C442.620148,150.868317 444.063751,152.148102 444.026245,156.087296 
	C443.869476,172.559067 443.959991,189.033203 443.961700,205.506470 
	C443.961792,206.338379 443.979156,207.170303 444.178802,208.790222 
	C445.969940,209.976486 447.570740,210.374756 449.171539,210.773010 
	C449.541992,210.772156 449.912445,210.771301 451.041809,210.838715 
	C470.571014,210.933136 489.341614,211.012741 508.110901,210.889664 
	C509.707458,210.879181 511.295105,209.516556 512.886841,208.782074 
	C512.788574,190.657150 512.679443,172.532257 512.625977,154.407196 
	C512.623474,153.554031 512.849854,152.391052 513.422424,151.895416 
	C517.167664,148.653381 526.493225,151.403351 528.060486,156.986420 
	C528.074280,197.935806 528.107788,238.023758 528.141296,278.111725 
	C526.914978,279.777435 525.851440,282.681519 524.430786,282.868195 
	C520.714417,283.356506 516.834290,282.723175 513.050110,282.276611 
	C512.809387,282.248230 512.831238,279.993927 512.833618,277.953918 
	C512.966187,261.474487 513.022400,245.816193 512.980835,230.158173 
	C512.977051,228.752441 512.340149,227.348389 511.997253,225.943573 
z"/>
<path fill="#E8E8E8" opacity="1.000000" stroke="none" 
	d="
M512.653687,208.470581 
	C511.295105,209.516556 509.707458,210.879181 508.110901,210.889664 
	C489.341614,211.012741 470.571014,210.933136 451.319641,210.839172 
	C452.735657,210.157898 454.628174,209.029099 456.530609,209.012054 
	C472.489899,208.869019 488.451172,208.899292 504.411530,208.955734 
	C507.543976,208.966812 509.620911,208.875717 509.475800,204.515701 
	C509.024109,190.942017 509.057831,177.350754 509.027161,163.766022 
	C509.022491,161.694794 509.674377,159.622101 510.022583,157.550079 
	C510.821899,157.623169 511.621216,157.696243 512.420532,157.769318 
	C512.420532,174.565918 512.420532,191.362503 512.653687,208.470581 
z"/>
<path fill="#E8E8E8" opacity="1.000000" stroke="none" 
	d="
M528.502686,277.950775 
	C528.107788,238.023758 528.074280,197.935806 528.087952,157.369904 
	C528.779236,158.426224 529.981567,159.958908 529.985840,161.494934 
	C530.090271,198.898132 530.079834,236.301697 530.016235,273.705078 
	C530.013916,275.067291 529.265015,276.428284 528.502686,277.950775 
z"/>
<path fill="#E8E8E8" opacity="1.000000" stroke="none" 
	d="
M449.058228,210.418274 
	C447.570740,210.374756 445.969940,209.976486 444.196777,209.254227 
	C444.356415,207.021881 444.964142,205.115280 444.976105,203.204956 
	C445.059509,189.883713 445.019470,176.561707 445.019012,163.239944 
	C445.018951,161.463593 445.018982,159.687225 445.018982,157.910873 
	C445.530518,157.863968 446.042023,157.817062 446.553558,157.770157 
	C446.722504,159.362762 447.033386,160.954971 447.038055,162.548050 
	C447.077271,175.869705 446.963684,189.192841 447.145111,202.512131 
	C447.179474,205.036957 448.316620,207.546783 449.058228,210.418274 
z"/>
<path fill="#DFDFDF" opacity="1.000000" stroke="none" 
	d="
M511.992249,226.417816 
	C512.340149,227.348389 512.977051,228.752441 512.980835,230.158173 
	C513.022400,245.816193 512.966187,261.474487 512.867920,277.604919 
	C512.182129,276.358337 511.564636,274.639587 510.939087,272.536011 
	C511.279877,270.257507 511.918121,268.365845 511.931244,266.469788 
	C512.022522,253.277725 511.984131,240.084732 511.992249,226.417816 
z"/>
<path fill="#FEFEFE" opacity="1.000000" stroke="none" 
	d="
M324.861115,263.159149 
	C325.373901,263.401154 325.886719,263.643158 326.722321,264.323242 
	C329.696106,265.844971 332.347046,266.928619 334.998016,268.012268 
	C338.481750,269.008514 341.988586,270.891327 345.443970,270.801178 
	C351.175629,270.651672 356.874146,269.233398 363.098145,268.140564 
	C365.731293,266.941406 367.852936,265.951263 369.974609,264.961121 
	C379.758575,261.775665 385.814270,254.683594 389.885559,245.659775 
	C391.359467,242.392853 392.602692,238.967789 393.471832,235.494934 
	C394.730865,230.464035 393.593262,229.173416 388.418793,229.145447 
	C379.456512,229.097000 370.493347,229.076706 361.531464,229.151611 
	C358.314789,229.178482 355.423950,229.254623 355.834137,224.655487 
	C356.157593,221.028366 354.705780,216.408264 361.440979,216.815094 
	C375.151978,216.851074 388.454712,216.848953 401.753998,217.062912 
	C403.950653,217.098267 406.132019,218.079758 408.649261,218.825241 
	C408.334595,225.757370 407.691132,232.488251 406.747253,239.826935 
	C401.508179,257.536316 391.760986,270.447632 375.399811,278.511047 
	C367.840149,282.236755 359.888855,283.193726 351.569214,284.999115 
	C349.437866,285.029785 347.733032,285.049042 345.596832,285.049072 
	C332.358826,283.621887 319.873474,280.748077 309.725677,272.465210 
	C302.602783,266.651337 296.545654,259.531677 289.964386,252.708984 
	C289.612213,251.947891 289.308228,251.472977 288.991089,250.629425 
	C286.711884,243.350784 284.476837,236.430206 282.129517,229.547943 
	C281.907837,228.897964 280.980469,228.488678 280.380737,227.967636 
	C280.397827,226.728806 280.414886,225.489960 280.593628,223.458511 
	C280.816437,221.785889 280.877594,220.905869 280.956085,219.594116 
	C280.964478,217.433899 280.955475,215.705429 280.944702,213.627686 
	C280.254364,212.522980 279.565735,211.767532 278.877136,211.012085 
	C278.942474,209.637939 279.007812,208.263809 279.471680,206.463135 
	C280.573761,205.468842 281.696716,205.027954 281.913025,204.312836 
	C283.349518,199.563477 284.591919,194.755371 286.058655,189.658081 
	C288.869965,185.165329 291.549683,180.999283 294.163940,176.792572 
	C299.697510,167.888306 308.239014,162.281525 316.921051,157.236542 
	C325.337402,152.345963 334.797485,149.812027 344.697479,149.955734 
	C349.658905,150.027740 354.616272,150.532074 359.570709,150.904572 
	C370.334015,151.713776 379.482758,156.548920 388.139923,162.528748 
	C390.940033,164.462860 390.388245,166.231979 388.137085,168.568542 
	C386.033203,170.752167 384.699982,173.678223 383.027588,176.277527 
	C382.578613,176.215408 382.129669,176.153290 381.270203,175.691803 
	C379.534058,174.092789 378.346802,172.676544 376.861084,171.727554 
	C364.294159,163.700577 350.574432,161.374695 336.319153,165.332001 
	C305.796265,173.805252 294.193604,197.567017 296.667450,224.732040 
	C297.909729,238.373291 304.691620,250.067734 315.535828,258.816772 
	C318.126038,260.906525 321.725739,261.745087 324.861115,263.159149 
z"/>
<path fill="#E8E8E8" opacity="1.000000" stroke="none" 
	d="
M324.854095,262.814423 
	C321.725739,261.745087 318.126038,260.906525 315.535828,258.816772 
	C304.691620,250.067734 297.909729,238.373291 296.667450,224.732040 
	C294.193604,197.567017 305.796265,173.805252 336.319153,165.332001 
	C350.574432,161.374695 364.294159,163.700577 376.861084,171.727554 
	C378.346802,172.676544 379.534058,174.092789 380.936523,175.626617 
	C377.215729,174.968079 373.096649,174.607910 369.677551,172.870285 
	C356.660156,166.254669 343.814911,165.358109 330.791870,172.600021 
	C330.238647,172.907639 329.510864,172.901352 328.144531,173.040970 
	C326.612183,173.652130 325.799744,174.263596 324.987305,174.875092 
	C324.987305,174.875092 324.505402,174.959564 323.890442,174.987183 
	C318.052887,176.479767 314.300140,179.464203 312.985260,184.968811 
	C311.858032,186.221405 310.730835,187.473984 308.965485,188.921295 
	C307.558228,190.424042 306.789124,191.732056 306.020020,193.040070 
	C302.003601,200.415588 299.728973,208.385437 300.214050,216.692398 
	C300.734924,225.611908 301.083252,234.777786 306.741882,243.207214 
	C308.965607,246.992599 310.471710,250.621490 313.024017,253.224640 
	C314.971710,255.211136 318.244995,255.897949 320.928589,257.162933 
	C321.797302,257.688477 322.666016,258.213989 323.700256,259.005280 
	C324.192871,260.337250 324.519958,261.403473 324.854095,262.814423 
z"/>
<path fill="#DFDFDF" opacity="1.000000" stroke="none" 
	d="
M383.276978,176.510803 
	C384.699982,173.678223 386.033203,170.752167 388.137085,168.568542 
	C390.388245,166.231979 390.940033,164.462860 388.139923,162.528748 
	C379.482758,156.548920 370.334015,151.713776 359.570709,150.904572 
	C354.616272,150.532074 349.658905,150.027740 344.697479,149.955734 
	C334.797485,149.812027 325.337402,152.345963 316.921051,157.236542 
	C308.239014,162.281525 299.697510,167.888306 294.163940,176.792572 
	C291.549683,180.999283 288.869965,185.165329 285.716858,189.724426 
	C284.067505,190.371628 282.921265,190.644196 281.774994,190.916763 
	C289.133881,176.095917 298.563232,162.439926 313.459747,154.991760 
	C328.089050,147.677155 344.215057,144.315247 360.879211,148.315018 
	C367.639496,149.937607 374.574280,151.150726 381.050507,153.566589 
	C391.448364,157.445358 393.932373,160.416946 393.047211,168.498215 
	C392.606232,172.524460 387.909485,176.648087 383.276978,176.510803 
z"/>
<path fill="#E8E8E8" opacity="1.000000" stroke="none" 
	d="
M351.995728,284.987701 
	C359.888855,283.193726 367.840149,282.236755 375.399811,278.511047 
	C391.760986,270.447632 401.508179,257.536316 406.688965,240.156189 
	C408.431458,237.976913 409.931824,236.076187 411.786255,234.101288 
	C410.586090,239.148102 409.031860,244.269073 406.939301,249.785034 
	C404.634735,254.849365 402.868469,259.518738 401.102203,264.188110 
	C399.325134,266.048279 397.548065,267.908447 395.129669,269.977722 
	C394.029785,271.193146 393.571198,272.199463 393.112640,273.205811 
	C393.015198,273.494598 392.843994,273.729645 392.003937,273.985565 
	C387.294495,275.904083 381.694122,275.411926 380.116241,281.243378 
	C378.327820,282.526794 376.539398,283.810242 374.187073,284.868591 
	C372.745636,285.068878 371.868134,285.494202 370.990631,285.919556 
	C367.637299,286.354950 364.283936,286.790344 360.278534,286.958160 
	C358.414429,287.093750 357.202362,287.496887 355.990326,287.899994 
	C355.244507,287.938843 354.498688,287.977661 353.339966,287.673096 
	C352.616638,286.549011 352.306183,285.768372 351.995728,284.987701 
z"/>
<path fill="#E8E8E8" opacity="1.000000" stroke="none" 
	d="
M290.012604,252.995163 
	C296.545654,259.531677 302.602783,266.651337 309.725677,272.465210 
	C319.873474,280.748077 332.358826,283.621887 345.587097,285.411652 
	C346.004303,286.521729 345.999786,287.250000 345.995300,287.978271 
	C343.958405,287.966675 341.921478,287.955078 339.387146,287.627289 
	C338.230377,287.287811 337.571075,287.264557 336.911774,287.241302 
	C331.455017,286.346191 325.998291,285.451080 320.219086,283.945068 
	C312.846313,278.597168 305.795990,273.860229 298.745636,269.123291 
	C298.209015,268.658020 297.672394,268.192749 296.995514,267.113281 
	C295.554962,265.678528 294.254669,264.857910 292.954376,264.037323 
	C292.954376,264.037323 292.998779,263.999786 292.984558,263.645996 
	C291.637085,261.196259 290.303864,259.100342 288.970612,257.004395 
	C288.883057,256.344727 288.795532,255.685043 288.897888,254.430389 
	C289.396057,253.555328 289.704315,253.275238 290.012604,252.995163 
z"/>
<path fill="#E8E8E8" opacity="1.000000" stroke="none" 
	d="
M280.183716,228.316986 
	C280.980469,228.488678 281.907837,228.897964 282.129517,229.547943 
	C284.476837,236.430206 286.711884,243.350784 288.660278,250.550873 
	C286.229523,248.893784 284.116302,246.946640 282.003113,244.999481 
	C281.330994,239.555099 280.658844,234.110718 280.183716,228.316986 
z"/>
<path fill="#DFDFDF" opacity="1.000000" stroke="none" 
	d="
M298.840240,269.457458 
	C305.795990,273.860229 312.846313,278.597168 319.942322,283.681274 
	C313.363007,278.702087 303.972382,277.465485 298.840240,269.457458 
z"/>
<path fill="#E8E8E8" opacity="1.000000" stroke="none" 
	d="
M281.545013,191.236938 
	C282.921265,190.644196 284.067505,190.371628 285.555603,190.032715 
	C284.591919,194.755371 283.349518,199.563477 281.913025,204.312836 
	C281.696716,205.027954 280.573761,205.468842 279.540497,206.056122 
	C279.912201,201.236145 280.613617,196.396637 281.545013,191.236938 
z"/>
<path fill="#DFDFDF" opacity="1.000000" stroke="none" 
	d="
M320.799622,256.841797 
	C318.244995,255.897949 314.971710,255.211136 313.024017,253.224640 
	C310.471710,250.621490 308.965607,246.992599 306.995392,243.446915 
	C307.885712,243.769699 308.891968,244.350281 309.677246,245.148346 
	C313.374908,248.906448 317.011963,252.724213 320.799622,256.841797 
z"/>
<path fill="#DFDFDF" opacity="1.000000" stroke="none" 
	d="
M313.291382,184.837402 
	C314.300140,179.464203 318.052887,176.479767 323.647095,175.011993 
	C320.544983,178.241440 317.071259,181.473709 313.291382,184.837402 
z"/>
<path fill="#DFDFDF" opacity="1.000000" stroke="none" 
	d="
M282.034424,245.354187 
	C284.116302,246.946640 286.229523,248.893784 288.673492,250.919495 
	C289.308228,251.472977 289.612213,251.947891 289.964386,252.708984 
	C289.704315,253.275238 289.396057,253.555328 288.904114,254.097321 
	C286.502197,251.475784 284.283966,248.592346 282.034424,245.354187 
z"/>
<path fill="#DFDFDF" opacity="1.000000" stroke="none" 
	d="
M380.458435,281.156403 
	C381.694122,275.411926 387.294495,275.904083 391.807587,274.086487 
	C388.404449,276.431732 384.602509,278.750580 380.458435,281.156403 
z"/>
<path fill="#DFDFDF" opacity="1.000000" stroke="none" 
	d="
M401.410278,264.004486 
	C402.868469,259.518738 404.634735,254.849365 406.760437,250.100113 
	C405.319366,254.620453 403.518860,259.220642 401.410278,264.004486 
z"/>
<path fill="#DFDFDF" opacity="1.000000" stroke="none" 
	d="
M346.431641,288.028198 
	C345.999786,287.250000 346.004303,286.521729 346.018494,285.430908 
	C347.733032,285.049042 349.437866,285.029785 351.569214,284.999115 
	C352.306183,285.768372 352.616638,286.549011 352.967346,287.641174 
	C350.961060,287.994507 348.914490,288.036316 346.431641,288.028198 
z"/>
<path fill="#E8E8E8" opacity="1.000000" stroke="none" 
	d="
M280.946472,213.976944 
	C280.955475,215.705429 280.964478,217.433899 280.615234,219.586441 
	C279.576385,219.994217 278.895721,219.977921 278.215057,219.961639 
	C278.178101,218.267532 278.141144,216.573441 278.496002,214.449341 
	C279.574036,214.005219 280.260284,213.991089 280.946472,213.976944 
z"/>
<path fill="#DFDFDF" opacity="1.000000" stroke="none" 
	d="
M288.998657,257.362671 
	C290.303864,259.100342 291.637085,261.196259 292.966644,263.668701 
	C291.650879,261.937103 290.338806,259.829010 288.998657,257.362671 
z"/>
<path fill="#DFDFDF" opacity="1.000000" stroke="none" 
	d="
M278.159271,220.313950 
	C278.895721,219.977921 279.576385,219.994217 280.597900,220.018188 
	C280.877594,220.905869 280.816437,221.785889 280.584229,223.087479 
	C279.643250,222.561462 278.873383,221.613876 278.159271,220.313950 
z"/>
<path fill="#DFDFDF" opacity="1.000000" stroke="none" 
	d="
M280.944733,213.627686 
	C280.260284,213.991089 279.574036,214.005219 278.547424,214.028168 
	C278.280304,213.183777 278.353577,212.330566 278.651978,211.244720 
	C279.565735,211.767532 280.254364,212.522980 280.944733,213.627686 
z"/>
<path fill="#DFDFDF" opacity="1.000000" stroke="none" 
	d="
M306.316589,192.893555 
	C306.789124,191.732056 307.558228,190.424042 308.681152,189.065277 
	C308.227692,190.258713 307.420410,191.502884 306.316589,192.893555 
z"/>
<path fill="#DFDFDF" opacity="1.000000" stroke="none" 
	d="
M293.094910,264.334961 
	C294.254669,264.857910 295.554962,265.678528 296.867310,266.876587 
	C295.664703,266.380280 294.450073,265.506439 293.094910,264.334961 
z"/>
<path fill="#DFDFDF" opacity="1.000000" stroke="none" 
	d="
M356.347046,287.950195 
	C357.202362,287.496887 358.414429,287.093750 359.857910,286.955597 
	C358.960815,287.480499 357.832275,287.740448 356.347046,287.950195 
z"/>
<path fill="#DFDFDF" opacity="1.000000" stroke="none" 
	d="
M371.320312,285.950439 
	C371.868134,285.494202 372.745636,285.068878 373.834167,284.877258 
	C373.246796,285.401123 372.448425,285.691223 371.320312,285.950439 
z"/>
<path fill="#DFDFDF" opacity="1.000000" stroke="none" 
	d="
M393.385925,273.027832 
	C393.571198,272.199463 394.029785,271.193146 394.853760,270.142456 
	C394.699158,271.015350 394.179169,271.932587 393.385925,273.027832 
z"/>
<path fill="#DFDFDF" opacity="1.000000" stroke="none" 
	d="
M325.309509,174.895798 
	C325.799744,174.263596 326.612183,173.652130 327.774628,173.053436 
	C327.293671,173.682983 326.462708,174.299744 325.309509,174.895798 
z"/>
<path fill="#DFDFDF" opacity="1.000000" stroke="none" 
	d="
M337.133484,287.422058 
	C337.571075,287.264557 338.230377,287.287811 338.954224,287.569519 
	C338.464264,287.752899 337.909729,287.677856 337.133484,287.422058 
z"/>
<path fill="#E8E8E8" opacity="1.000000" stroke="none" 
	d="
M369.559326,264.959930 
	C367.852936,265.951263 365.731293,266.941406 363.304810,267.976135 
	C362.994751,267.814850 362.989471,267.608978 362.972717,267.092041 
	C365.022186,266.173553 367.083099,265.566162 369.559326,264.959930 
z"/>
<path fill="#2F79C1" opacity="1.000000" stroke="none" 
	d="
M163.339157,203.862045 
	C159.737427,203.884308 156.421402,203.726334 151.710495,203.501938 
	C152.157013,200.776123 152.649017,197.371826 153.289902,193.995773 
	C153.748566,191.579529 154.406769,189.201126 154.990967,186.410767 
	C158.861572,185.741898 162.721268,185.271149 166.569473,185.351349 
	C167.394058,185.368515 168.773575,187.327179 168.878525,188.483917 
	C169.403412,194.268738 169.667343,200.111923 163.339157,203.862045 
M157.478088,199.065460 
	C159.621353,197.551285 162.099594,196.329163 163.775208,194.407242 
	C164.697479,193.349426 164.628555,191.036072 164.280502,189.447891 
	C164.134033,188.779510 161.839478,187.870743 161.003510,188.221207 
	C159.526489,188.840408 157.717255,190.137833 157.318710,191.518463 
	C156.702057,193.654694 157.154419,196.099533 157.478088,199.065460 
z"/>
<path fill="#338BD9" opacity="1.000000" stroke="none" 
	d="
M224.455231,209.630310 
	C225.327042,210.080750 225.889938,210.439926 226.367706,210.889587 
	C232.579315,216.735657 232.349167,218.884186 224.418823,223.918762 
	C222.358521,219.036285 222.234329,214.375137 224.455231,209.630310 
z"/>
<path fill="#2D67AE" opacity="1.000000" stroke="none" 
	d="
M215.842255,232.597260 
	C214.899460,234.016708 213.794815,235.068359 212.533569,236.269119 
	C209.582825,229.974319 211.627914,221.178955 216.658463,218.059357 
	C216.562988,222.744965 216.121704,227.487213 215.842255,232.597260 
z"/>
<path fill="#2D67AE" opacity="1.000000" stroke="none" 
	d="
M226.706238,229.704193 
	C223.989059,231.702759 221.909851,236.029861 217.149292,233.198624 
	C219.195847,229.207687 222.361206,228.134781 226.706238,229.704193 
z"/>
<path fill="#2F79C1" opacity="1.000000" stroke="none" 
	d="
M197.790771,196.778809 
	C197.938629,199.023560 197.853622,201.036469 197.645920,203.463318 
	C190.748322,205.864304 187.755280,211.401566 184.878708,217.369324 
	C184.286667,208.868393 182.453140,200.490662 187.028381,192.337128 
	C188.395813,196.262100 189.079041,200.267120 189.856354,204.823669 
	C192.133911,200.473038 194.092606,196.731445 196.051331,192.989868 
	C196.553528,194.175568 197.055725,195.361267 197.790771,196.778809 
z"/>
<path fill="#338BD9" opacity="1.000000" stroke="none" 
	d="
M196.045288,192.587799 
	C194.092606,196.731445 192.133911,200.473038 189.856354,204.823669 
	C189.079041,200.267120 188.395813,196.262100 187.336853,192.127274 
	C187.284500,191.209747 187.607895,190.422028 188.198242,189.128235 
	C188.646942,188.085266 188.828674,187.548370 189.010406,187.011475 
	C189.010406,187.011475 189.000000,187.000000 189.289841,186.970703 
	C190.054886,186.652908 190.530090,186.364395 191.005295,186.075882 
	C195.340012,185.923584 196.185623,188.646011 196.045288,192.587799 
z"/>
<path fill="#2F79C1" opacity="1.000000" stroke="none" 
	d="
M188.739899,187.053925 
	C188.828674,187.548370 188.646942,188.085266 188.249390,188.812286 
	C188.178833,188.367050 188.324097,187.731720 188.739899,187.053925 
z"/>
<path fill="#2F79C1" opacity="1.000000" stroke="none" 
	d="
M190.825089,185.878647 
	C190.530090,186.364395 190.054886,186.652908 189.295563,186.975891 
	C189.555939,186.567383 190.100418,186.124405 190.825089,185.878647 
z"/>
<path fill="#2A468C" opacity="1.000000" stroke="none" 
	d="
M218.903778,195.150650 
	C217.376511,196.250168 215.488464,197.230362 213.301956,198.069733 
	C211.891937,196.903214 210.780396,195.877518 209.668854,194.851807 
	C209.044952,195.049713 208.421066,195.247604 207.797180,195.445496 
	C208.201904,200.019424 208.606628,204.593353 209.010681,209.582092 
	C200.777328,205.026474 203.246780,197.150269 203.124100,189.774918 
	C208.754974,190.972290 214.275787,191.182358 218.903778,195.150650 
z"/>
<path fill="#2C5AA3" opacity="1.000000" stroke="none" 
	d="
M165.121460,240.038910 
	C165.266663,238.190674 165.411865,236.342422 165.746307,234.249405 
	C168.721664,238.779602 168.943176,243.707840 166.457825,248.923706 
	C165.895172,247.892273 165.693024,246.713425 165.275818,244.851074 
	C165.080994,242.791351 165.101227,241.415131 165.121460,240.038910 
z"/>
<path fill="#2D67AE" opacity="1.000000" stroke="none" 
	d="
M153.968079,242.654144 
	C147.957901,239.326950 145.207275,229.691513 149.103104,223.921371 
	C151.010361,225.785187 152.841644,227.574753 154.842712,229.645172 
	C150.927322,233.731598 153.081726,238.064255 153.968079,242.654144 
z"/>
<path fill="#338BD9" opacity="1.000000" stroke="none" 
	d="
M164.844711,239.819550 
	C165.101227,241.415131 165.080994,242.791351 165.042725,244.580811 
	C158.408798,246.616119 157.600143,245.352966 159.979141,235.408875 
	C161.802505,237.074295 163.185242,238.337250 164.844711,239.819550 
z"/>
<path fill="#E8E8E8" opacity="1.000000" stroke="none" 
	d="
M335.114410,267.760681 
	C332.347046,266.928619 329.696106,265.844971 326.973572,264.456451 
	C329.742859,264.616821 332.583649,265.082062 335.710815,265.792480 
	C335.741730,266.528137 335.486267,267.018616 335.114410,267.760681 
z"/>
<path fill="#338BD9" opacity="1.000000" stroke="none" 
	d="
M157.315765,198.739471 
	C157.154419,196.099533 156.702057,193.654694 157.318710,191.518463 
	C157.717255,190.137833 159.526489,188.840408 161.003510,188.221207 
	C161.839478,187.870743 164.134033,188.779510 164.280502,189.447891 
	C164.628555,191.036072 164.697479,193.349426 163.775208,194.407242 
	C162.099594,196.329163 159.621353,197.551285 157.315765,198.739471 
z"/>
</svg>